Coordinates
version=1
nRows=27
nColumns=12
inDegrees=yes

Units are S.I. units (second, meters, Newtons, ...)
Angles are in degrees

endheader
time	SC_y	SC_z	SC_x	AC_y	AC_z	AC_x	GH_y	GH_z	GH_yy	EL_x	PS_y
       0.0               -59.8         0.0225          18.88          35.37          2.472          2.029          89.05          32.62          49.96          132.3          149.6
   0.04711              -59.79        0.02677          18.89          35.37          2.471          2.028          89.06          32.63          49.94          132.3          149.6
   0.09423              -59.79         0.0313          18.89          35.37           2.47          2.027          89.08          32.64          49.92          132.3          149.6
    0.1413              -59.79        0.03611           18.9          35.37          2.469          2.025          89.09          32.65           49.9          132.2          149.6
    0.1885              -59.79        0.04125          18.91          35.37          2.468          2.024           89.1          32.66          49.88          132.2          149.6
    0.2356              -59.79        0.04672          18.91          35.37          2.466          2.022          89.11          32.67          49.86          132.2          149.6
    0.2827              -59.79        0.05256          18.92          35.37          2.465           2.02          89.12          32.68          49.84          132.2          149.6
    0.3298              -59.78         0.0588          18.93          35.37          2.463          2.019          89.14          32.69          49.81          132.2          149.7
    0.3769              -59.78        0.06549          18.94          35.37          2.462          2.017          89.16           32.7          49.79          132.2          149.7
     0.424              -59.78        0.07266          18.95          35.37           2.46          2.014          89.17          32.72          49.76          132.1          149.7
    0.4711              -59.78        0.08037          18.96          35.37          2.458          2.012          89.19          32.73          49.73          132.1          149.7
    0.5182              -59.77        0.08866          18.98          35.37          2.456           2.01          89.21          32.74          49.69          132.1          149.7
    0.5654              -59.77         0.0976          18.99          35.38          2.454          2.007          89.23          32.76          49.66          132.1          149.7
    0.6125              -59.77         0.1073           19.0          35.38          2.452          2.004          89.25          32.78          49.62          132.1          149.7
    0.6596              -59.76         0.1177          19.02          35.38           2.45          2.001          89.28           32.8          49.58          132.0          149.7
    0.7067              -59.76          0.129          19.03          35.38          2.447          1.998           89.3          32.82          49.53          132.0          149.7
    0.7538              -59.76         0.1413          19.05          35.38          2.444          1.994          89.33          32.84          49.48          132.0          149.7
    0.8009              -59.75         0.1548          19.07          35.38          2.441           1.99          89.36          32.87          49.43          131.9          149.7
     0.848              -59.75         0.1694          19.09          35.38          2.437          1.986           89.4          32.89          49.37          131.9          149.7
    0.8951              -59.74         0.1855          19.12          35.38          2.434          1.981          89.44          32.92           49.3          131.9          149.7
    0.9423              -59.74         0.2031          19.14          35.38           2.43          1.976          89.48          32.95          49.23          131.8          149.7
    0.9894              -59.73         0.2225          19.17          35.38          2.425           1.97          89.52          32.99          49.16          131.8          149.7
     1.036              -59.72         0.2439           19.2          35.38           2.42          1.964          89.57          33.03          49.07          131.7          149.7
     1.084              -59.71         0.2676          19.24          35.38          2.414          1.957          89.63          33.07          48.97          131.6          149.7
     1.131              -59.71          0.294          19.27          35.39          2.408          1.949          89.69          33.12          48.87          131.6          149.7
     1.178               -59.7         0.3234          19.32          35.39          2.401           1.94          89.76          33.17          48.75          131.5          149.7
     1.225              -59.68         0.3563          19.37          35.39          2.394          1.931          89.83          33.23          48.62          131.4          149.7
